<?xml version="1.0" encoding="UTF-8"?>
<svg width="32" height="32" viewBox="0 0 32 32" xmlns="http://www.w3.org/2000/svg">
  <path d="M16 8c-4.4 0-8 3.6-8 8s3.6 8 8 8 8-3.6 8-8-3.6-8-8-8zm0 12c-2.2 0-4-1.8-4-4s1.8-4 4-4 4 1.8 4 4-1.8 4-4 4z" fill="#b8956a"/>
  <path d="M29.9 13.7l-3.1-0.9c-0.2-0.6-0.4-1.2-0.7-1.8l1.8-2.6c0.3-0.4 0.2-1-0.2-1.3l-2.8-2.8c-0.3-0.3-0.9-0.4-1.3-0.2l-2.6 1.8c-0.6-0.3-1.2-0.5-1.8-0.7l-0.9-3.1c-0.1-0.5-0.6-0.8-1.1-0.8h-4c-0.5 0-1 0.3-1.1 0.8l-0.9 3.1c-0.6 0.2-1.2 0.4-1.8 0.7l-2.6-1.8c-0.4-0.3-1-0.2-1.3 0.2l-2.8 2.8c-0.3 0.3-0.4 0.9-0.2 1.3l1.8 2.6c-0.3 0.6-0.5 1.2-0.7 1.8l-3.1 0.9c-0.5 0.1-0.8 0.6-0.8 1.1v4c0 0.5 0.3 1 0.8 1.1l3.1 0.9c0.2 0.6 0.4 1.2 0.7 1.8l-1.8 2.6c-0.3 0.4-0.2 1 0.2 1.3l2.8 2.8c0.3 0.3 0.9 0.4 1.3 0.2l2.6-1.8c0.6 0.3 1.2 0.5 1.8 0.7l0.9 3.1c0.1 0.5 0.6 0.8 1.1 0.8h4c0.5 0 1-0.3 1.1-0.8l0.9-3.1c0.6-0.2 1.2-0.4 1.8-0.7l2.6 1.8c0.4 0.3 1 0.2 1.3-0.2l2.8-2.8c0.3-0.3 0.4-0.9 0.2-1.3l-1.8-2.6c0.3-0.6 0.5-1.2 0.7-1.8l3.1-0.9c0.5-0.1 0.8-0.6 0.8-1.1v-4c0-0.5-0.3-1-0.8-1.1z" fill="#8d6e42" stroke="#654a2f" stroke-width="0.5"/>
</svg>
