<?xml version="1.0" encoding="UTF-8"?>
<svg width="128" height="128" viewBox="0 0 128 128" xmlns="http://www.w3.org/2000/svg">
  <!-- Aether Sage - The mysterious technical expert -->
  <!-- Background circle -->
  <circle cx="64" cy="64" r="60" fill="#1a0f1a" stroke="#6b4a8e" stroke-width="4"/>
  
  <!-- Face -->
  <circle cx="64" cy="55" r="32" fill="#c4a584"/>
  
  <!-- Mystical hood -->
  <path d="M 35 40 Q 64 15 93 40 Q 90 25 64 20 Q 38 25 35 40" fill="#3a2650"/>
  <path d="M 40 45 Q 64 25 88 45 Q 85 30 64 25 Q 43 30 40 45" fill="#4a3060"/>
  
  <!-- Eyes (glowing with aether knowledge) -->
  <circle cx="56" cy="48" r="3" fill="#8a5fc7"/>
  <circle cx="72" cy="48" r="3" fill="#8a5fc7"/>
  <circle cx="56" cy="48" r="1" fill="#b8a0d9"/>
  <circle cx="72" cy="48" r="1" fill="#b8a0d9"/>
  
  <!-- Nose -->
  <ellipse cx="64" cy="55" rx="1.5" ry="2.5" fill="#b09580"/>
  
  <!-- Mouth (knowing smile) -->
  <path d="M 59 61 Q 64 64 69 61" stroke="#8a7460" stroke-width="1.5" fill="none"/>
  
  <!-- Aether crystal pendant -->
  <ellipse cx="64" cy="85" rx="20" ry="15" fill="#2a1f3a"/>
  <polygon points="64,78 68,82 64,86 60,82" fill="#8a5fc7"/>
  <polygon points="64,80 66,82 64,84 62,82" fill="#b8a0d9"/>
  
  <!-- Mystic symbols -->
  <circle cx="50" cy="30" r="2" fill="#8a5fc7" opacity="0.6"/>
  <circle cx="78" cy="32" r="1.5" fill="#8a5fc7" opacity="0.6"/>
  <circle cx="45" cy="38" r="1" fill="#8a5fc7" opacity="0.6"/>
</svg>
